<svg width="1500" height="865" viewBox="0 0 1500 865" fill="none" xmlns="http://www.w3.org/2000/svg">
<rect width="1500" height="865" rx="30" fill="url(#paint0_linear_2150_2)"/>
<path opacity="0.9" fill-rule="evenodd" clip-rule="evenodd" d="M1323.02 658.578C1307.41 676.667 1275.74 673.954 1270.53 647.502C1268.05 634.384 1271.67 618.559 1277.32 607.479C1289.99 583.286 1312.84 563.39 1338.86 556.833C1338.86 571.757 1338.86 591.427 1338.41 606.576C1337.95 623.308 1334.33 645.237 1323.02 658.578ZM1071.23 301.116C1085.71 302.019 1097.25 317.844 1093.41 344.751C1088.66 376.634 1062.19 410.772 1032.1 418.459C1027.35 407.155 1025.09 384.092 1027.8 361.483C1032.78 320.105 1054.04 300.209 1071.23 301.116V301.116ZM507.262 455.314C484.865 425.468 485.768 389.293 492.785 354.926C514.726 404.215 573.321 412.809 609.515 405.572C604.766 443.558 584.851 476.794 550.471 476.794C531.242 477.019 517.212 468.654 507.262 455.314ZM586.44 316.034C597.478 327.298 604.925 343.716 608.333 361.939C608.354 361.937 608.384 362.161 608.384 362.161C608.371 362.086 608.35 362.014 608.333 361.939C583.015 365.546 558.601 360.798 540.743 347.01C527.851 336.837 524.454 320.785 529.884 311.062C537.799 297.045 561.557 290.939 586.44 316.034ZM241.677 130.634C257.283 112.323 288.955 115.258 293.933 141.714C296.419 154.6 293.026 170.427 287.374 181.505C274.7 205.697 251.852 225.593 225.835 232.377C225.835 217.232 225.608 197.785 226.294 182.638C226.742 165.906 230.364 143.747 241.677 130.634V130.634ZM1396.55 522.692C1396.77 444.01 1396.55 365.327 1396.55 286.643C1396.55 267.2 1340.67 266.066 1338.86 285.74C1338.86 293.652 1338.86 301.792 1338.63 309.705C1337.73 352.891 1317.14 433.608 1282.98 463.001C1273.71 470.917 1265.33 471.368 1259.46 467.07C1254.25 463.226 1252.89 453.507 1252.89 445.14V434.288C1252.89 385.677 1253.12 335.481 1252.89 286.868C1252.89 267.423 1197.01 266.066 1195.2 285.74C1195.2 330.958 1195.2 374.824 1195.43 419.591C1158.56 478.377 1073.27 505.962 1037.98 436.321C1059.92 444.688 1083.22 440.617 1099.06 432.252C1126.44 417.781 1147.25 393.816 1151.32 355.831C1155.16 244.587 1008.12 229.442 975.315 342.718C969.888 361.483 966.948 381.606 967.628 401.276C968.302 420.042 972.149 437.451 978.71 452.828C966.717 464.584 952.92 472.723 939.123 472.273C921.02 471.593 922.836 449.211 922.836 436.321V351.533C922.836 341.36 922.836 331.185 921.927 321.239C918.99 291.619 896.364 268.103 864.695 266.066C819.672 265.39 788.003 307.219 772.394 353.118C772.171 327.569 772.394 312.418 772.394 286.643C772.171 267.423 720.365 266.066 714.483 286.416C707.017 312.193 682.583 332.315 659.733 344.297C652.724 327.341 643.903 311.742 631.686 298.403C581.46 243.909 508.847 253.861 466.312 298.852C432.605 334.578 422.43 399.016 440.525 444.233C427.179 460.064 408.857 472.95 392.568 472.273C384.42 471.82 379.897 467.07 377.86 459.61C375.822 452.373 376.279 443.785 376.279 436.321C376.279 408.058 376.05 379.796 376.279 351.533C376.279 341.36 376.279 331.185 375.376 321.239C372.431 291.619 355.012 267.876 321.986 265.844C265.201 263.353 242.353 318.299 225.608 363.517V266.973C237.601 264.937 249.141 261.997 260.674 258.608C385.778 222.656 361.571 91.2911 268.37 89.0323C205.479 87.6767 168.149 129.051 168.606 191.906V232.604C145.981 229.215 129.013 199.822 119.516 180.829C118.154 177.889 116.797 174.949 115.443 172.008C114.313 169.07 111.145 167.49 108.199 168.394C105.715 169.07 103.227 169.976 100.735 170.88C91.6902 174.95 84.2188 181.96 80.6044 191.23C74.0457 207.734 80.6044 225.371 92.137 237.805C111.145 257.703 141.46 264.937 168.149 266.293C167.922 344.751 168.149 422.982 168.149 501.438C169.054 512.518 184.215 515.459 193.036 515.682C202.314 515.91 222.444 512.969 222.673 500.31L223.351 490.585C227.197 455.768 260.674 316.489 302.978 316.261C313.388 316.261 318.593 323.045 318.593 333.22V457.351C318.593 495.787 340.308 521.561 379.672 521.561C410.212 521.788 437.807 499.628 454.323 472.047C456.583 474.986 458.395 478.15 460.883 480.863C482.373 505.962 514.046 522.016 550.244 522.241C629.191 521.109 669.685 453.28 666.75 386.58C685.073 376.407 701.589 363.289 714.252 347.01V501.438C715.159 512.518 730.997 515.459 739.822 515.682C749.092 515.91 769.23 512.969 769.23 500.31L770.133 490.585L772.845 464.811C776.921 428.861 803.841 316.489 849.764 316.261C859.939 316.261 865.15 323.045 865.15 333.22V457.351C865.15 495.787 886.867 521.561 926.45 521.561C953.827 521.788 978.71 503.926 995.451 480.412C1017.62 507.77 1051.56 523.822 1092.27 523.822C1140.01 523.822 1174.62 502.796 1197.69 468.88C1202.9 498.049 1218.51 521.109 1256.74 521.561C1296.32 521.788 1326.42 466.621 1338.86 433.381V522.241C1327.09 524.274 1315.56 527.215 1304.02 530.604C1178.92 566.33 1202.9 697.919 1296.1 699.956C1359.22 701.539 1396.32 660.161 1396.09 597.306C1396.09 586.68 1395.87 566.783 1396.09 556.381C1418.49 559.774 1435.68 589.394 1444.96 608.386C1446.54 611.325 1447.9 614.261 1449.03 617.202C1450.39 620.142 1453.32 621.498 1456.49 620.818C1458.98 620.142 1461.47 619.239 1463.73 618.105C1473.01 614.038 1480.48 607.256 1484.09 597.759C1490.66 581.254 1484.09 563.844 1472.33 551.407C1453.56 531.286 1423.01 524.274 1396.55 522.692V522.692Z" fill="#FFA638"/>
<defs>
<linearGradient id="paint0_linear_2150_2" x1="-7.16034e-06" y1="792.844" x2="1445.57" y2="168.715" gradientUnits="userSpaceOnUse">
<stop stop-color="#FF9D2D"/>
<stop offset="1" stop-color="#FFD877"/>
</linearGradient>
</defs>
</svg>
